<svg width="38" height="44" viewBox="0 0 38 44" fill="none" xmlns="http://www.w3.org/2000/svg">
<g clip-path="url(#clip0_520_1457)">
<path d="M21.3788 9.4056C22.4445 7.5595 23.5107 5.71284 24.5764 3.86674C28.0063 9.80726 31.4361 15.7478 34.8659 21.6883C33.8002 23.5344 32.734 25.3811 31.6683 27.2272C30.5673 25.3201 29.4664 23.413 28.3649 21.5059C25.9633 25.6653 23.5622 29.8246 21.1606 33.9839H23.5935C25.2343 31.1426 26.8746 28.3007 28.5153 25.4594C28.9209 26.162 31.3628 30.3918 31.7684 31.0939C33.5451 28.0165 35.3219 24.9397 37.098 21.8623C32.8912 14.5752 28.6837 7.28762 24.4763 0H13.3001C11.5234 3.07739 9.74667 6.15422 7.97049 9.23162C9.17437 11.3166 10.3777 13.401 11.5816 15.486C8.0214 21.652 4.46179 27.8179 0.901611 33.9839H14.5107C18.0205 27.9046 21.5304 21.8259 25.0402 15.7467C23.8201 13.6332 22.5994 11.5191 21.3793 9.4056H21.3788Z" fill="url(#paint0_linear_520_1457)"/>
<path d="M22.7573 15.486C19.1971 21.652 15.6375 27.8185 12.0773 33.9845H0.901123C4.46074 27.8185 8.02091 21.652 11.5811 15.486C10.3778 13.4016 9.17389 11.3166 7.97056 9.23218H19.1467L22.7578 15.486H22.7573Z" fill="#2C5693"/>
<path d="M28.5153 25.4594C29.5995 27.3373 30.6842 29.2159 31.7684 31.0939H25.2617C26.3459 29.2159 27.4306 27.3373 28.5148 25.4594H28.5153Z" fill="#2C5693"/>
<path d="M9.08218 39.1132H5.86997V43.272H3.20375V39.1132C1.83876 39.1222 0.619211 39.1222 0.000488281 39.1222V37.0836H9.08274V39.1132H9.08218Z" fill="url(#paint1_linear_520_1457)"/>
<path d="M7.91975 43.272L11.0866 37.0836H14.4628L17.6297 43.272H14.8443L14.3895 42.3892H11.1588L10.704 43.272H7.91919H7.91975ZM11.9325 40.6057H13.6164L12.7789 38.7675L11.9325 40.6057Z" fill="url(#paint2_linear_520_1457)"/>
<path d="M28.5892 43.272H25.9141V39.5227L24.4215 43.272H22.0826L20.599 39.5227V43.272H17.9238V37.0836H21.9645L23.2568 40.3328L24.5396 37.0836H28.5892V43.272Z" fill="url(#paint3_linear_520_1457)"/>
<path d="M32.6167 41.4891C31.3815 40.0206 30.1468 38.5522 28.9116 37.0842H31.9331C32.5686 37.8741 33.2041 38.664 33.8396 39.4539C34.314 38.664 34.7889 37.8741 35.2633 37.0842H37.9995C36.7643 39.1468 35.5285 41.2094 34.2933 43.2726H31.5448C31.9017 42.6785 32.2592 42.0838 32.6161 41.4897L32.6167 41.4891Z" fill="url(#paint4_linear_520_1457)"/>
</g>
<defs>
<linearGradient id="paint0_linear_520_1457" x1="18.9998" y1="0" x2="18.9998" y2="33.9839" gradientUnits="userSpaceOnUse">
<stop stop-color="#3260A9"/>
<stop offset="1" stop-color="#3260A9"/>
</linearGradient>
<linearGradient id="paint1_linear_520_1457" x1="4.54161" y1="37.0836" x2="4.54161" y2="43.272" gradientUnits="userSpaceOnUse">
<stop stop-color="#3260A9"/>
<stop offset="1" stop-color="#3260A9"/>
</linearGradient>
<linearGradient id="paint2_linear_520_1457" x1="12.7744" y1="37.0836" x2="12.7744" y2="43.272" gradientUnits="userSpaceOnUse">
<stop stop-color="#3260A9"/>
<stop offset="1" stop-color="#3260A9"/>
</linearGradient>
<linearGradient id="paint3_linear_520_1457" x1="23.2565" y1="37.0836" x2="23.2565" y2="43.272" gradientUnits="userSpaceOnUse">
<stop stop-color="#3260A9"/>
<stop offset="1" stop-color="#3260A9"/>
</linearGradient>
<linearGradient id="paint4_linear_520_1457" x1="33.4555" y1="37.0842" x2="33.4555" y2="43.2726" gradientUnits="userSpaceOnUse">
<stop stop-color="#3260A9"/>
<stop offset="1" stop-color="#3260A9"/>
</linearGradient>
<clipPath id="clip0_520_1457">
<rect width="38" height="43.272" fill="white"/>
</clipPath>
</defs>
</svg>
